<?xml version="1.0" encoding="utf-8"?><svg xmlns="http://www.w3.org/2000/svg" xmlns:xlink="http://www.w3.org/1999/xlink" width="2948.028" height="556"><defs><style type="text/css"><![CDATA[
    ]]></style>
    
  </defs><svg xmlns="http://www.w3.org/2000/svg" id="logo-w" x="0" y="5" width="500" height="338" viewBox="0 0 41.65 28.14"><polygon points="30.6 0 30.6 5.15 34.26 5.15 30.28 20.11 25.35 0 20.27 0 14.86 20.27 10.97 5.15 14.94 5.15 14.94 0 0 0 0 5.15 3.26 5.15 8.98 28.14 17.01 28.14 20.82 13.75 24.48 28.14 32.51 28.14 38.55 5.15 41.65 5.15 41.65 0 30.6 0" style="fill: #4a2e84; stroke-width: 0" />
    
  </svg><rect id="black-line" x="550" y="184" width="2398.028" height="4" style="stroke-width: 0" /><svg xmlns="http://www.w3.org/2000/svg" id="secondary" x="550" y="259" width="1650" height="111" viewBox="0 0 143.86 9.69"><path d="M139.16,6.67V1.33l3.71,5.96h.36V.77l.62-.62h-1.86l.62.62v4.54l-3.22-5.15h-1.47l.6.62v5.9l-.6.62h1.86l-.62-.62ZM133.65,6.9c-1.43,0-1.92-1.7-1.92-3.18s.5-3.18,1.92-3.18,1.93,1.71,1.93,3.18-.5,3.18-1.93,3.18M130.8,3.72c0,1.81,1.03,3.72,2.85,3.72s2.87-1.91,2.87-3.72-1.03-3.72-2.87-3.72-2.85,1.91-2.85,3.72M127.57,6.72V.69h1.35l.76.76V.16h-5.02v1.29l.77-.76h1.34v6.04l-.55.57h1.91l-.57-.57ZM122.29,4.05v2.3c-.17.17-.51.51-1.17.51-1.58,0-2.38-1.6-2.38-3.13s1-3.13,2.38-3.13c.36,0,.63.08.87.34l.79.78V.47c-.42-.22-.85-.41-1.66-.41-1.95,0-3.31,1.74-3.31,3.66s1.37,3.67,3.31,3.67c1.1,0,1.57-.27,1.96-.52v-2.82l.56-.57h-1.91l.57.57ZM111.71,6.67V1.33l3.75,5.96h.32V.77l.62-.62h-1.86l.62.62v4.54l-3.22-5.15h-1.48l.6.62v5.9l-.6.62h1.86l-.62-.62ZM106.6.16l.57.57v6l-.57.57h1.92l-.57-.57V.72l.57-.57h-1.92ZM100.26,3.71h3v3.01l-.57.57h1.92l-.57-.57V.72l.57-.57h-1.92l.57.57v2.45h-3V.72l.57-.57h-1.91l.56.57v6l-.56.57h1.91l-.57-.57v-3.01ZM97.05,5.31c0-.7-.33-1.14-.67-1.37l-1.45-1.05c-.52-.38-.79-.86-.79-1.22,0-.75.64-1.02,1.03-1.02.2,0,.35.08.46.08l.63.68.67-.99-1.41-.27c-.1-.02-.16-.04-.34-.04-1.25,0-1.81,1.06-1.81,1.75,0,.54.28,1.16.92,1.63l1.46,1.05c.4.28.51.69.51,1.04,0,.61-.37,1.26-1.18,1.26-.19,0-.36-.04-.5-.1l-.68-.8-.62,1.11,1.37.27s.23.05.42.05c.86,0,1.98-.73,1.98-2.08M89.06,1.74l.98,2.95h-2l1.02-2.95ZM87.35,6.73l.52-1.51h2.36l.5,1.51-.56.56h2.02l-.57-.58-2.23-6.55h-.36l-2.26,6.55-.58.58h1.72l-.56-.56ZM79.76,7.29l1.63-5.16,1.58,5.16h.36l2.07-6.57.58-.57h-1.72l.56.55-1.51,4.94-1.46-4.94.56-.55h-2.02l.57.57.15.47-1.37,4.45-1.46-4.94.56-.55h-2.02l.58.57,2.01,6.57h.36ZM69.19,3.01l-.27.26.03.1h.83c-.13.9-.25,1.69-.44,2.95-.27,1.88-.5,2.54-.69,2.7-.06.06-.16.09-.25.09-.12,0-.31-.09-.44-.15-.12-.06-.22.01-.28.07-.08.09-.17.23-.17.34,0,.2.26.3.43.3.19,0,.67-.16,1.1-.69.34-.42.8-1.4,1.2-3.67.07-.42.15-.84.32-1.95l1.02-.1.22-.26h-1.19c.3-1.86.55-2.42.98-2.42.3,0,.55.12.77.33.07.07.18.07.28,0,.08-.07.2-.23.2-.37.01-.2-.26-.42-.6-.42-.58,0-1.2.34-1.62.84-.39.47-.65,1.24-.79,2.05h-.65ZM64.67,5.65c0-1.49.75-2.29,1.07-2.42.09-.04.23-.08.33-.08.5,0,.79.38.79,1.15.02,1.31-.66,2.49-1.09,2.63-.08.03-.21.07-.31.07-.56,0-.79-.6-.79-1.36M66.38,2.77c-.26,0-.67.12-1.08.36-.69.41-1.45,1.35-1.45,2.75,0,.71.33,1.49,1.27,1.49.44,0,1.07-.29,1.5-.67.66-.6,1.06-1.64,1.06-2.53,0-.83-.44-1.39-1.29-1.39M54.74.72l1.8,3.25v2.74l-.57.57h1.92l-.57-.57v-2.74l1.84-3.24.59-.58h-1.77l.56.55-1.5,2.67-1.43-2.67.56-.55h-2.02l.58.57ZM50.98,6.72V.69h1.35l.76.76V.16h-5.02v1.29l.77-.76h1.34v6.04l-.56.57h1.91l-.57-.57ZM44.51.16l.57.57v6l-.57.57h1.92l-.57-.57V.72l.57-.57h-1.92ZM42.44,5.31c0-.7-.33-1.14-.66-1.37l-1.45-1.05c-.52-.38-.79-.86-.79-1.22,0-.75.64-1.02,1.03-1.02.21,0,.35.08.46.08l.63.68.67-.99-1.42-.27c-.1-.02-.16-.04-.34-.04-1.24,0-1.81,1.06-1.81,1.75,0,.54.28,1.16.92,1.63l1.46,1.05c.4.28.51.69.51,1.04,0,.61-.37,1.26-1.18,1.26-.19,0-.36-.04-.5-.1l-.68-.8-.62,1.11,1.37.27s.23.05.42.05c.86,0,1.98-.73,1.98-2.08M33.28.69h.87c.76,0,1.37.65,1.37,1.43s-.62,1.32-1.37,1.32h-.87V.69ZM33.28,6.72v-2.76h1.08l1.73,3.33h1.19l-.56-.57-1.6-2.93c.8-.24,1.34-.99,1.34-1.67,0-1.21-1.12-1.97-2.31-1.97h-2.21l.56.57v6l-.56.57h1.91l-.57-.57ZM30.07,7.29v-1.31l-.76.78h-2.16v-3h1.61l.57.57v-1.67l-.57.57h-1.61V.69h2.16l.76.76V.16h-4.27l.56.57v6l-.56.57h4.27ZM20.82.16h-2.02l.58.57,2.01,6.57h.36l2.07-6.57.58-.57h-1.72l.56.55-1.51,4.94-1.46-4.94.56-.55ZM15.29.16l.57.57v6l-.57.57h1.92l-.57-.57V.72l.57-.57h-1.92ZM8.65,6.67V1.33l3.83,5.96h.25V.77l.62-.62h-1.86l.62.62v4.54L8.88.16h-1.48l.6.62v5.9l-.6.62h1.86l-.62-.62ZM.62,5.38c0,1.17.99,2.07,2.21,2.07s2.31-.86,2.31-2.07V.77l.6-.62h-1.86l.62.62v4.61c0,.82-.65,1.47-1.48,1.47s-1.57-.64-1.57-1.47V.77l.62-.62H0l.62.62v4.61Z" style="fill: #000000; stroke-width: 0" />
    
  </svg><svg xmlns="http://www.w3.org/2000/svg" version="1.1" width="2398.028" x="550" y="-70" height="212.4"><path d="M94.848,128.592c0,27.512-15.96,53.808-49.248,53.808l-40.28,0l9.272-9.272l0-89.072l-9.272-9.272l40.28,0c33.288,0,49.248,26.296,49.248,53.808z M75.392,128.592c0-24.168-9.12-44.992-29.792-44.992l-14.592,0l0,89.984l14.592,0c20.672,0,29.792-20.824,29.792-44.992z M180.538,182.4l-67.488,0l9.272-9.272l0-89.072l-9.272-9.272l67.488,0l0,21.128l-12.312-12.312l-29.488,0l0,36.784l21.128,0l9.272-9.272l0,27.36l-9.272-9.272l-21.128,0l0,44.384l29.488,0l12.312-12.312l0,21.128z M277.02,105.792c0,21.584-21.128,31.008-40.888,31.008l-13.072,0l0,36.328l9.272,9.272l-34.96,0l9.272-9.272l0-89.072l-9.272-9.272l38.76,0c19.76,0,40.888,9.424,40.888,31.008z M258.324,105.792c0-13.832-9.88-22.192-22.192-22.192l-13.072,0l0,44.384l13.072,0c12.312,0,22.192-8.36,22.192-22.192z M380.646,182.4l-36.48,0l9.12-9.12l-6.84-21.28l-35.416,0l-7.144,21.28l9.12,9.12l-28.88,0l9.424-9.424l34.2-98.192l10.032,0l33.44,98.192z M343.406,143.184l-14.288-43.776l-15.048,43.776l29.336,0z M479.56,182.4l-23.256,0l-25.688-49.4l-14.288,0l0,40.128l9.272,9.272l-34.96,0l9.272-9.272l0-89.072l-9.272-9.272l38.76,0c18.24,0,37.088,9.424,37.088,29.488c0,11.248-8.208,21.736-20.064,25.536l23.864,43.32z M447.792,104.272c0-12.312-7.752-20.672-18.392-20.672l-13.072,0l0,40.584l13.072,0c10.336,0,18.392-7.904,18.392-19.912z M563.73,95.912l-12.312-12.312l-18.088,0l0,89.528l9.272,9.272l-34.96,0l9.272-9.272l0-89.528l-18.088,0l-12.312,12.312l0-21.128l77.216,0l0,21.128z M690.764,182.4l-34.96,0l9.272-9.272l0-80.408l-33.592,59.736l-33.592-59.736l0,80.408l9.272,9.272l-28.88,0l9.272-9.272l0-89.072l-9.272-9.272l28.576,0l29.336,52.288l29.184-52.288l25.384,0l-9.272,9.272l0,89.072z M775.086,182.4l-67.488,0l9.272-9.272l0-89.072l-9.272-9.272l67.488,0l0,21.128l-12.312-12.312l-29.488,0l0,36.784l21.128,0l9.272-9.272l0,27.36l-9.272-9.272l-21.128,0l0,44.384l29.488,0l12.312-12.312l0,21.128z M883.12,74.784l-9.272,9.272l0,107.16l-62.32-96.824l0,78.736l9.272,9.272l-28.88,0l9.272-9.272l0-89.072l-9.272-9.272l26.904,0l44.688,70.072l0-60.8l-9.272-9.272l28.88,0z M974.13,95.912l-12.312-12.312l-18.088,0l0,89.528l9.272,9.272l-34.96,0l9.272-9.272l0-89.528l-18.088,0l-12.312,12.312l0-21.128l77.216,0l0,21.128z  M1125.598,128.592c0,28.12-17.784,56.088-46.208,56.088s-46.208-27.968-46.208-56.088s17.784-56.088,46.208-56.088s46.208,27.968,46.208,56.088z M1105.838,128.592c0-21.28-5.928-47.272-26.448-47.272s-26.448,25.992-26.448,47.272s5.928,47.272,26.448,47.272s26.448-25.992,26.448-47.272z M1211.288,95.912l-12.312-12.312l-29.488,0l0,36.784l21.128,0l9.272-9.272l0,27.36l-9.272-9.272l-21.128,0l0,43.928l9.272,9.272l-34.96,0l9.272-9.272l0-89.072l-9.272-9.272l67.488,0l0,21.128z  M1380.844,182.4l-34.96,0l9.272-9.272l0-80.408l-33.592,59.736l-33.592-59.736l0,80.408l9.272,9.272l-28.88,0l9.272-9.272l0-89.072l-9.272-9.272l28.576,0l29.336,52.288l29.184-52.288l25.384,0l-9.272,9.272l0,89.072z M1434.158,182.4l-34.96,0l9.272-9.272l0-89.072l-9.272-9.272l34.96,0l-9.272,9.272l0,89.072z M1526.84,177.688c-5.32,3.192-12.16,6.232-27.208,6.232c-27.816,0-45.752-27.208-45.752-55.328c0-28.576,18.392-55.328,45.752-55.328c13.984,0,21.432,3.496,27.208,6.384l0,22.04l-14.744-14.744c-3.496-3.648-7.296-5.168-12.464-5.168c-20.52,0-25.992,25.84-25.992,46.816s6.232,46.816,25.992,46.816c5.168,0,8.968-1.52,12.464-5.168l14.744-14.744l0,22.192z M1632.594,182.4l-23.256,0l-25.688-49.4l-14.288,0l0,40.128l9.272,9.272l-34.96,0l9.272-9.272l0-89.072l-9.272-9.272l38.76,0c18.24,0,37.088,9.424,37.088,29.488c0,11.248-8.208,21.736-20.064,25.536l23.864,43.32z M1600.826,104.272c0-12.312-7.752-20.672-18.392-20.672l-13.072,0l0,40.584l13.072,0c10.336,0,18.392-7.904,18.392-19.912z M1735.612,128.592c0,28.12-17.784,56.088-46.208,56.088s-46.208-27.968-46.208-56.088s17.784-56.088,46.208-56.088s46.208,27.968,46.208,56.088z M1715.852,128.592c0-21.28-5.928-47.272-26.448-47.272s-26.448,25.992-26.448,47.272s5.928,47.272,26.448,47.272s26.448-25.992,26.448-47.272z M1831.182,153.672c0,21.888-19.304,28.728-37.088,28.728l-40.28,0l9.272-9.272l0-89.072l-9.272-9.272l36.48,0c20.976,0,35.568,10.336,35.568,26.448c0,11.704-8.36,21.888-18.848,25.536c12.768,3.496,24.168,14.288,24.168,26.904z M1808.686,104.272c0-13.528-7.752-20.672-18.392-20.672l-10.792,0l0,40.584l10.792,0c10.488,0,18.392-6.992,18.392-19.912z M1814.006,153.824c0-13.072-8.664-20.824-19.912-20.824l-14.592,0l0,40.584l14.592,0c10.792,0,19.912-6.688,19.912-19.76z M1884.8,182.4l-34.96,0l9.272-9.272l0-89.072l-9.272-9.272l34.96,0l-9.272,9.272l0,89.072z M1996.938,128.592c0,28.12-17.784,56.088-46.208,56.088s-46.208-27.968-46.208-56.088s17.784-56.088,46.208-56.088s46.208,27.968,46.208,56.088z M1977.178,128.592c0-21.28-5.928-47.272-26.448-47.272s-26.448,25.992-26.448,47.272s5.928,47.272,26.448,47.272s26.448-25.992,26.448-47.272z M2078.828,182.4l-63.688,0l9.272-9.272l0-89.072l-9.272-9.272l34.96,0l-9.272,9.272l0,89.528l25.688,0l12.312-12.312l0,21.128z M2186.558,128.592c0,28.12-17.784,56.088-46.208,56.088s-46.208-27.968-46.208-56.088s17.784-56.088,46.208-56.088s46.208,27.968,46.208,56.088z M2166.798,128.592c0-21.28-5.928-47.272-26.448-47.272s-26.448,25.992-26.448,47.272s5.928,47.272,26.448,47.272s26.448-25.992,26.448-47.272z M2299.76,124.184l-9.272,9.272l0,42.56c-7.448,4.408-14.592,7.904-32.376,7.904c-29.184,0-51.984-25.384-51.984-55.328s23.56-55.328,52.744-55.328c12.464,0,20.368,2.888,27.056,6.232l0,22.192l-14.744-14.744c-3.496-3.496-7.144-5.168-12.312-5.168c-20.672,0-32.832,24.472-32.832,46.816s12.16,46.816,32.832,46.816c6.84,0,12.464-2.584,15.2-5.32l0-36.632l-9.272-9.272l34.96,0z M2394.418,74.784l-9.272,9.272l-26.6,48.64l0,40.432l9.272,9.272l-34.96,0l9.272-9.272l0-40.736l-27.208-48.184l-9.424-9.424l37.24,0l-9.12,9.12l20.824,37.848l19.912-37.848l-9.12-9.12l29.184,0z" style="fill: #000000" /></svg><svg xmlns="http://www.w3.org/2000/svg" version="1.1" width="916.90790039062" x="550" y="394" height="166.7109375"><path d="M47.6484375,114l-0.1669921875,0.0556640625q0,4.5087890625-1.3916015625,8.2939453125q-1.447265625,3.896484375-3.7294921875,6.5126953125q-2.44921875,2.783203125-5.232421875,4.6201171875q-2.9501953125,1.892578125-6.01171875,2.8388671875q-3.1728515625,0.9462890625-6.01171875,0.9462890625l-6.2900390625-0.4453125l-15.5302734375-2.9501953125l6.9580078125-12.6357421875l7.79296875,9.1845703125q2.560546875,1.1689453125,7.013671875,1.1689453125q6.568359375,0,10.0751953125-4.0078125t3.5068359375-10.2978515625q0-7.458984375-7.4033203125-13.025390625l-14.361328125-10.798828125q-10.46484375-7.8486328125-10.46484375-18.369140625q0-3.0615234375,1.2802734375-6.45703125q1.224609375-3.33984375,3.673828125-6.345703125t6.5126953125-5.009765625t9.0732421875-2.00390625q3.1171875,0,7.1806640625,0.779296875l13.248046875,2.5048828125l-7.5146484375,11.2998046875l-7.1806640625-7.8486328125q-2.6162109375-1.0576171875-5.6220703125-1.0576171875q-4.7314453125,0-8.349609375,2.9501953125q-3.5625,2.89453125-3.5625,8.794921875q0,3.228515625,2.2822265625,6.8466796875t6.8466796875,7.013671875l14.361328125,10.798828125q9.017578125,6.791015625,9.017578125,16.6435546875z M101.20088378906,130.3095703125l0.0556640625,0.22265625q-3.8408203125,4.23046875-8.0712890625,6.0673828125t-10.0751953125,1.8369140625q-5.7890625,0-10.5205078125-2.560546875t-7.7373046875-6.8466796875q-3.005859375-4.23046875-4.67578125-9.685546875t-1.669921875-11.35546875q0-4.453125,1.001953125-8.8505859375q1.001953125-4.453125,3.005859375-8.2939453125t4.8427734375-6.8466796875q2.783203125-2.9501953125,6.6796875-4.7314453125t8.2939453125-1.78125q5.3994140625,0,9.685546875,1.1689453125q4.119140625,1.11328125,9.017578125,3.6181640625l0,13.359375l-9.908203125-9.9638671875q-3.2841796875-3.2841796875-8.1826171875-3.2841796875q-4.119140625,0-7.013671875,2.2265625t-4.3974609375,6.01171875t-2.1708984375,7.681640625t-0.66796875,8.349609375q0,12.357421875,4.7314453125,19.1484375q4.7314453125,6.8466796875,12.8583984375,6.8466796875q2.6162109375,0,6.345703125-1.6142578125t5.6220703125-3.673828125z M165.44083007813,136.7109375l-14.8623046875-0.111328125l0-43.751953125q0-3.33984375-2.0595703125-5.9560546875q-2.0595703125-2.671875-5.900390625-2.671875q-6.6240234375,0-13.1923828125,6.7353515625l-5.56640625,5.56640625l0,34.3447265625l5.7890625,5.7890625l-20.5400390625,0l5.8447265625-5.7890625l0-69.134765625l-5.6220703125-5.56640625l14.5283203125-6.2900390625l0,40.74609375l4.8984375-4.8984375q8.6279296875-8.4609375,16.69921875-8.4609375q3.451171875,0,6.345703125,1.2802734375q2.8388671875,1.2802734375,4.5087890625,3.33984375t2.5048828125,4.5087890625t0.8349609375,4.8427734375l0,39.6884765625z M227.06456542969,107.765625q0,7.8486328125-3.2841796875,14.8623046875q-3.228515625,6.8466796875-9.462890625,11.244140625q-6.1787109375,4.341796875-13.916015625,4.341796875t-13.916015625-4.341796875q-6.234375-4.3974609375-9.462890625-11.244140625q-3.2841796875-7.013671875-3.2841796875-14.8623046875t3.2841796875-14.8623046875q3.228515625-6.8466796875,9.462890625-11.244140625q6.1787109375-4.341796875,13.916015625-4.341796875t13.916015625,4.341796875q6.234375,4.3974609375,9.462890625,11.244140625q3.2841796875,7.013671875,3.2841796875,14.8623046875z M216.48839355469,107.765625q0-4.9541015625-0.890625-9.1845703125q-0.9462890625-4.453125-2.7275390625-8.015625q-1.8369140625-3.673828125-5.009765625-5.8447265625t-7.458984375-2.1708984375t-7.458984375,2.1708984375t-5.009765625,5.8447265625q-1.78125,3.5625-2.7275390625,8.015625q-0.890625,4.23046875-0.890625,9.1845703125t0.890625,9.1845703125q0.9462890625,4.453125,2.7275390625,8.015625q1.8369140625,3.673828125,5.009765625,5.8447265625t7.458984375,2.1708984375t7.458984375-2.1708984375t5.009765625-5.8447265625q1.78125-3.5625,2.7275390625-8.015625q0.890625-4.23046875,0.890625-9.1845703125z M289.96857421875,107.765625q0,7.8486328125-3.2841796875,14.8623046875q-3.228515625,6.8466796875-9.462890625,11.244140625q-6.1787109375,4.341796875-13.916015625,4.341796875t-13.916015625-4.341796875q-6.234375-4.3974609375-9.462890625-11.244140625q-3.2841796875-7.013671875-3.2841796875-14.8623046875t3.2841796875-14.8623046875q3.228515625-6.8466796875,9.462890625-11.244140625q6.1787109375-4.341796875,13.916015625-4.341796875t13.916015625,4.341796875q6.234375,4.3974609375,9.462890625,11.244140625q3.2841796875,7.013671875,3.2841796875,14.8623046875z M279.39240234375,107.765625q0-4.9541015625-0.890625-9.1845703125q-0.9462890625-4.453125-2.7275390625-8.015625q-1.8369140625-3.673828125-5.009765625-5.8447265625t-7.458984375-2.1708984375t-7.458984375,2.1708984375t-5.009765625,5.8447265625q-1.78125,3.5625-2.7275390625,8.015625q-0.890625,4.23046875-0.890625,9.1845703125t0.890625,9.1845703125q0.9462890625,4.453125,2.7275390625,8.015625q1.8369140625,3.673828125,5.009765625,5.8447265625t7.458984375,2.1708984375t7.458984375-2.1708984375t5.009765625-5.8447265625q1.78125-3.5625,2.7275390625-8.015625q0.890625-4.23046875,0.890625-9.1845703125z M321.08840332031,136.7109375l-20.5400390625,0l5.8447265625-5.7890625l0-69.69140625l-5.5107421875-5.455078125l14.4169921875-5.677734375l0,80.82421875z  M408.32122558594,107.765625q0,7.8486328125-3.2841796875,14.8623046875q-3.228515625,6.8466796875-9.462890625,11.244140625q-6.1787109375,4.341796875-13.916015625,4.341796875t-13.916015625-4.341796875q-6.234375-4.3974609375-9.462890625-11.244140625q-3.2841796875-7.013671875-3.2841796875-14.8623046875t3.2841796875-14.8623046875q3.228515625-6.8466796875,9.462890625-11.244140625q6.1787109375-4.341796875,13.916015625-4.341796875t13.916015625,4.341796875q6.234375,4.3974609375,9.462890625,11.244140625q3.2841796875,7.013671875,3.2841796875,14.8623046875z M397.74505371094,107.765625q0-4.9541015625-0.890625-9.1845703125q-0.9462890625-4.453125-2.7275390625-8.015625q-1.8369140625-3.673828125-5.009765625-5.8447265625t-7.458984375-2.1708984375t-7.458984375,2.1708984375t-5.009765625,5.8447265625q-1.78125,3.5625-2.7275390625,8.015625q-0.890625,4.23046875-0.890625,9.1845703125t0.890625,9.1845703125q0.9462890625,4.453125,2.7275390625,8.015625q1.8369140625,3.673828125,5.009765625,5.8447265625t7.458984375,2.1708984375t7.458984375-2.1708984375t5.009765625-5.8447265625q1.78125-3.5625,2.7275390625-8.015625q0.890625-4.23046875,0.890625-9.1845703125z M454.1363671875,51.2109375l-8.4609375,10.2421875l-5.9560546875-5.900390625q-2.783203125,1.11328125-4.453125,3.2841796875t-1.669921875,5.12109375l0,14.8623046875l13.6376953125,0l0,5.12109375l-13.6376953125,0l0,46.98046875l5.7890625,5.7890625l-20.5400390625,0l5.8447265625-5.7890625l0-46.98046875l-6.8466796875,0l0-5.12109375l6.8466796875,0l0-9.462890625q0-7.904296875,4.453125-13.025390625t10.6318359375-5.12109375l14.361328125,0z  M558.51372070313,136.7109375l-21.6533203125,0l6.345703125-6.4013671875l0-61.453125l-25.494140625,44.2529296875l-25.6611328125-44.2529296875l0,61.453125l6.4013671875,6.4013671875l-19.9833984375,0l6.4013671875-6.4013671875l0-67.91015625l-6.4013671875-6.4013671875l16.6435546875,0l24.26953125,42.416015625l24.4365234375-42.416015625l14.6953125,0l-6.4013671875,6.4013671875l0,67.91015625z M614.07007324219,106.7080078125l-35.4580078125,0.1669921875q0,11.7451171875,4.5087890625,18.7587890625t13.13671875,7.013671875q4.564453125,0,8.6279296875-2.2265625q4.119140625-2.2822265625,6.8466796875-5.7333984375l2.8388671875,2.8388671875q-1.224609375,1.7255859375-2.8388671875,3.33984375t-4.119140625,3.451171875q-2.560546875,1.892578125-6.01171875,2.9501953125q-3.6181640625,1.11328125-7.458984375,1.11328125q-6.45703125,0-11.578125-2.6162109375q-5.009765625-2.560546875-8.0712890625-6.9580078125q-3.005859375-4.341796875-4.5087890625-9.6298828125t-1.5029296875-11.021484375q0-5.677734375,1.6142578125-11.1884765625q1.55859375-5.34375,4.6201171875-9.8525390625q3.005859375-4.3974609375,7.904296875-7.0693359375t10.91015625-2.671875q7.5703125,0,13.025390625,3.9521484375t7.458984375,10.6875t0.0556640625,14.6953125z M606.11011230469,95.7421875l-0.0556640625-0.111328125q0-5.455078125-3.5068359375-9.3515625q-3.5068359375-3.9521484375-8.9619140625-3.9521484375q-3.1171875,0-5.6220703125,1.1689453125t-4.119140625,3.1171875q-1.55859375,1.892578125-2.7275390625,4.564453125t-1.669921875,5.232421875q-0.4453125,2.337890625-0.7236328125,5.5107421875l26.3291015625,0q1.0576171875-2.5048828125,1.0576171875-6.1787109375z M664.50533203125,86.4462890625l0.0556640625-25.3828125l-5.455078125-5.455078125l14.361328125-5.677734375l0,80.82421875l5.8447265625,5.7890625l-14.7509765625,0l0-7.6259765625q-3.0615234375,4.5087890625-7.34765625,6.8466796875t-8.5166015625,2.337890625q-5.7890625,0-10.353515625-2.7275390625q-4.564453125-2.783203125-7.34765625-7.1806640625t-4.1748046875-9.685546875q-1.447265625-5.34375-1.447265625-10.798828125t1.447265625-10.798828125q1.3916015625-5.2880859375,4.1748046875-9.685546875t7.34765625-7.1806640625q4.564453125-2.7275390625,10.353515625-2.7275390625q4.23046875,0,8.4609375,2.2822265625q4.1748046875,2.2265625,7.34765625,6.8466796875z M635.50435546875,107.5986328125l-0.0556640625,0.0556640625q0,4.564453125,0.7236328125,8.5166015625q0.7236328125,4.0634765625,2.337890625,7.8486328125q1.55859375,3.7294921875,4.6201171875,6.01171875q2.9501953125,2.2265625,7.0693359375,2.2265625q4.2861328125,0,8.015625-2.5048828125t6.345703125-6.9580078125l0-30.3369140625q-5.7890625-9.462890625-14.361328125-9.462890625q-4.119140625,0-7.0693359375,2.2265625t-4.564453125,6.01171875q-1.55859375,3.7294921875-2.337890625,7.8486328125q-0.7236328125,3.9521484375-0.7236328125,8.5166015625z M703.30680175781,62.1767578125q0,2.0595703125-1.5029296875,3.5625t-3.5625,1.5029296875t-3.5625-1.5029296875t-1.5029296875-3.5625t1.5029296875-3.5625t3.5625-1.5029296875t3.5625,1.5029296875t1.5029296875,3.5625z M708.53922363281,136.7109375l-20.5400390625,0l5.8447265625-5.7890625l0-41.748046875l-5.6220703125-5.56640625l14.47265625-6.2900390625l0,53.6044921875z M761.25670898437,130.3095703125l0.0556640625,0.22265625q-3.8408203125,4.23046875-8.0712890625,6.0673828125t-10.0751953125,1.8369140625q-5.7890625,0-10.5205078125-2.560546875t-7.7373046875-6.8466796875q-3.005859375-4.23046875-4.67578125-9.685546875t-1.669921875-11.35546875q0-4.453125,1.001953125-8.8505859375q1.001953125-4.453125,3.005859375-8.2939453125t4.8427734375-6.8466796875q2.783203125-2.9501953125,6.6796875-4.7314453125t8.2939453125-1.78125q5.3994140625,0,9.685546875,1.1689453125q4.119140625,1.11328125,9.017578125,3.6181640625l0,13.359375l-9.908203125-9.9638671875q-3.2841796875-3.2841796875-8.1826171875-3.2841796875q-4.119140625,0-7.013671875,2.2265625t-4.3974609375,6.01171875t-2.1708984375,7.681640625t-0.66796875,8.349609375q0,12.357421875,4.7314453125,19.1484375q4.7314453125,6.8466796875,12.8583984375,6.8466796875q2.6162109375,0,6.345703125-1.6142578125t5.6220703125-3.673828125z M786.30915527344,62.1767578125q0,2.0595703125-1.5029296875,3.5625t-3.5625,1.5029296875t-3.5625-1.5029296875t-1.5029296875-3.5625t1.5029296875-3.5625t3.5625-1.5029296875t3.5625,1.5029296875t1.5029296875,3.5625z M791.54157714844,136.7109375l-20.5400390625,0l5.8447265625-5.7890625l0-41.748046875l-5.6220703125-5.56640625l14.47265625-6.2900390625l0,53.6044921875z M856.4494921875,136.7109375l-14.8623046875-0.111328125l0-43.751953125q0-3.33984375-2.0595703125-5.9560546875q-2.0595703125-2.671875-5.900390625-2.671875q-6.6240234375,0-13.1923828125,6.7353515625l-5.56640625,5.56640625l0,34.3447265625l5.7890625,5.7890625l-20.5400390625,0l5.8447265625-5.7890625l0-41.748046875l-5.6220703125-5.56640625l14.5283203125-6.2900390625l0,13.359375l4.8984375-4.8984375q8.6279296875-8.4609375,16.69921875-8.4609375q3.451171875,0,6.345703125,1.2802734375q2.8388671875,1.2802734375,4.5087890625,3.33984375t2.5048828125,4.5087890625t0.8349609375,4.8427734375l0,39.6884765625z M910.33592285156,106.7080078125l-35.4580078125,0.1669921875q0,11.7451171875,4.5087890625,18.7587890625t13.13671875,7.013671875q4.564453125,0,8.6279296875-2.2265625q4.119140625-2.2822265625,6.8466796875-5.7333984375l2.8388671875,2.8388671875q-1.224609375,1.7255859375-2.8388671875,3.33984375t-4.119140625,3.451171875q-2.560546875,1.892578125-6.01171875,2.9501953125q-3.6181640625,1.11328125-7.458984375,1.11328125q-6.45703125,0-11.578125-2.6162109375q-5.009765625-2.560546875-8.0712890625-6.9580078125q-3.005859375-4.341796875-4.5087890625-9.6298828125t-1.5029296875-11.021484375q0-5.677734375,1.6142578125-11.1884765625q1.55859375-5.34375,4.6201171875-9.8525390625q3.005859375-4.3974609375,7.904296875-7.0693359375t10.91015625-2.671875q7.5703125,0,13.025390625,3.9521484375t7.458984375,10.6875t0.0556640625,14.6953125z M902.37596191406,95.7421875l-0.0556640625-0.111328125q0-5.455078125-3.5068359375-9.3515625q-3.5068359375-3.9521484375-8.9619140625-3.9521484375q-3.1171875,0-5.6220703125,1.1689453125t-4.119140625,3.1171875q-1.55859375,1.892578125-2.7275390625,4.564453125t-1.669921875,5.232421875q-0.4453125,2.337890625-0.7236328125,5.5107421875l26.3291015625,0q1.0576171875-2.5048828125,1.0576171875-6.1787109375z" style="fill: #000000" /></svg></svg>